<svg width="664" height="96" viewBox="0 0 664 96" fill="none" xmlns="http://www.w3.org/2000/svg">
<path d="M43.2706 62.1553C39.6598 68.1442 32.5387 67.0922 30.2694 62.3646C24.2821 68.9863 19.3992 62.1465 19.3992 62.1465C20.4949 70.981 27.8981 77.8077 36.874 77.8077C45.993 77.8077 53.4925 70.7552 54.3934 61.7098C54.3934 61.7098 46.3671 66.4623 43.2706 62.1553Z" fill="#A8AAD7"/>
<path d="M36.8987 82.191C25.3744 82.191 16.0332 72.6834 16.0332 60.9496C16.0332 49.2202 25.3731 39.7089 36.8987 39.7089C48.4192 39.7089 57.7606 49.2204 57.7606 60.9496C57.7604 72.6834 48.4192 82.191 36.8987 82.191ZM0.000212157 27.4273V93.4862C0.000212157 94.8748 1.15212 96 2.58024 96H71.4215C72.846 96 74 94.875 74 93.4862V27.4273H0.000212157Z" fill="#6120FF"/>
<path d="M25.8348 15.0688C23.793 15.0688 22.1355 13.3811 22.1355 11.3023C22.1355 9.21986 23.7931 7.53516 25.8348 7.53516C27.8781 7.53516 29.5357 9.21986 29.5357 11.3023C29.5372 13.3811 27.8794 15.0688 25.8348 15.0688ZM13.6171 15.0688C11.5738 15.0688 9.91776 13.3811 9.91776 11.3023C9.91776 9.21986 11.574 7.53516 13.6171 7.53516C15.661 7.53516 17.3173 9.21986 17.3173 11.3023C17.3186 13.3811 15.6626 15.0688 13.6171 15.0688ZM71.4213 0H2.58002C1.1519 0 0 1.21373 0 2.71239V22.6024H73.9998V2.71239C73.9998 1.21373 72.8457 0 71.4213 0Z" fill="#6120FF"/>
<g filter="url(#filter0_dd_108_2)">
<path d="M436 74.8062V31.3995H446.415V39.6513H446.733C447.369 36.9384 448.456 34.7907 449.993 33.2081C451.53 31.6256 453.359 30.8343 455.479 30.8343C457.625 30.8343 459.474 31.6444 461.024 33.2647C462.575 34.866 463.509 36.9949 463.827 39.6513H464.145C464.662 36.9949 465.762 34.866 467.444 33.2647C469.127 31.6444 471.102 30.8343 473.368 30.8343C476.296 30.8343 478.668 32.172 480.483 34.8472C482.312 37.5224 483.226 41.0831 483.226 45.5293V74.8062H472.254V49.4856C472.254 47.5828 471.917 46.0945 471.241 45.0206C470.565 43.9279 469.657 43.3816 468.518 43.3816C467.391 43.3816 466.497 43.9279 465.834 45.0206C465.185 46.0945 464.86 47.5828 464.86 49.4856V74.8062H454.366V49.4856C454.366 47.5828 454.028 46.0945 453.352 45.0206C452.676 43.9279 451.769 43.3816 450.629 43.3816C449.874 43.3816 449.224 43.6265 448.681 44.1163C448.138 44.6062 447.714 45.3127 447.409 46.2358C447.117 47.1401 446.972 48.2234 446.972 49.4856V74.8062H436Z" fill="white"/>
<path d="M502.742 75.4844C500.794 75.4844 499.071 75.0323 497.574 74.128C496.09 73.2048 494.924 71.8107 494.076 69.9456C493.228 68.0804 492.804 65.7066 492.804 62.8242C492.804 60.4504 493.088 58.4251 493.658 56.7484C494.228 55.0528 495.023 53.6681 496.043 52.5942C497.064 51.5203 498.25 50.7008 499.601 50.1356C500.966 49.5704 502.437 49.2031 504.014 49.0335C505.723 48.8451 507.095 48.619 508.128 48.3553C509.175 48.0727 509.93 47.6865 510.394 47.1966C510.858 46.6879 511.09 46.0191 511.09 45.1902V45.0772C511.09 43.9468 510.785 43.0801 510.176 42.4773C509.566 41.8744 508.784 41.573 507.83 41.573C506.783 41.573 505.929 41.9027 505.266 42.5621C504.617 43.2026 504.226 44.1917 504.093 45.5293H493.996C494.129 42.8917 494.718 40.4614 495.765 38.2383C496.825 35.9964 498.369 34.2066 500.396 32.869C502.424 31.5126 504.955 30.8343 507.989 30.8343C510.176 30.8343 512.137 31.2017 513.873 31.9365C515.608 32.6524 517.086 33.6603 518.305 34.9602C519.524 36.2413 520.452 37.7485 521.088 39.4818C521.737 41.1962 522.062 43.0613 522.062 45.0772V74.8062H511.805V68.7021H511.567C510.957 70.3224 510.215 71.6317 509.341 72.6302C508.479 73.6287 507.492 74.3541 506.379 74.8062C505.279 75.2584 504.067 75.4844 502.742 75.4844ZM506.32 65.6501C507.154 65.6501 507.936 65.4052 508.665 64.9154C509.407 64.4255 510.01 63.719 510.474 62.7959C510.937 61.8728 511.169 60.7518 511.169 59.433V55.8158C510.878 55.9853 510.566 56.1455 510.235 56.2962C509.917 56.4469 509.573 56.5882 509.202 56.7201C508.844 56.852 508.46 56.9744 508.049 57.0875C507.651 57.2005 507.234 57.3041 506.797 57.3983C505.948 57.5867 505.253 57.8976 504.71 58.3309C504.179 58.7454 503.782 59.2635 503.517 59.8852C503.265 60.488 503.139 61.1663 503.139 61.9199C503.139 63.1256 503.437 64.0487 504.034 64.6893C504.63 65.3298 505.392 65.6501 506.32 65.6501Z" fill="white"/>
<path d="M560.808 45.5293H550.71C550.657 44.6438 550.439 43.8808 550.054 43.2403C549.67 42.5997 549.173 42.1099 548.564 41.7708C547.967 41.4128 547.305 41.2339 546.576 41.2339C545.635 41.2339 544.827 41.4788 544.151 41.9686C543.475 42.4584 543.144 43.1555 543.157 44.0598C543.144 44.7004 543.336 45.2938 543.734 45.8402C544.145 46.3865 544.933 46.8104 546.099 47.1118L552.3 48.6944C555.428 49.5045 557.753 50.8704 559.277 52.792C560.814 54.6948 561.589 57.2476 561.603 60.4504C561.589 63.5401 560.94 66.2247 559.655 68.5043C558.383 70.7651 556.64 72.5172 554.427 73.7606C552.228 74.9852 549.717 75.5975 546.894 75.5975C542.23 75.5975 538.579 74.241 535.942 71.5281C533.319 68.8152 531.854 65.2356 531.55 60.7895H542.442C542.588 62.1648 543.065 63.2292 543.873 63.9828C544.694 64.7176 545.728 65.0849 546.974 65.0849C547.981 65.0849 548.809 64.84 549.458 64.3502C550.121 63.8603 550.459 63.1633 550.472 62.259C550.459 61.43 550.167 60.7706 549.597 60.2808C549.041 59.791 548.166 59.3953 546.974 59.0939L541.567 57.7374C538.453 56.965 536.121 55.4955 534.571 53.3289C533.02 51.1624 532.252 48.3741 532.265 44.9641C532.252 41.9498 532.808 39.397 533.935 37.3058C535.074 35.1957 536.698 33.5943 538.804 32.5016C540.925 31.3901 543.436 30.8343 546.338 30.8343C550.75 30.8343 554.228 32.1343 556.773 34.7342C559.33 37.334 560.675 40.9324 560.808 45.5293Z" fill="white"/>
<path d="M589.61 31.3995V42.7033H569.495V31.3995H589.61ZM573.391 21H584.363V60.846C584.363 61.4489 584.436 61.9575 584.582 62.372C584.727 62.7676 584.953 63.0691 585.257 63.2763C585.562 63.4647 585.953 63.5589 586.43 63.5589C586.761 63.5589 587.146 63.5024 587.583 63.3894C588.033 63.2763 588.365 63.1821 588.577 63.1068L590.167 74.0715C589.677 74.2787 588.974 74.533 588.06 74.8345C587.159 75.1359 586.086 75.3337 584.84 75.4279C582.322 75.6163 580.209 75.249 578.499 74.3258C576.79 73.3838 575.505 71.9049 574.643 69.8891C573.782 67.8732 573.365 65.3487 573.391 62.3155V21Z" fill="white"/>
<path d="M613.986 75.5975C610.726 75.5975 607.917 74.712 605.558 72.9411C603.213 71.1513 601.404 68.5891 600.132 65.2545C598.873 61.901 598.244 57.8882 598.244 53.2159C598.244 48.7321 598.88 44.8134 600.152 41.4599C601.424 38.1065 603.219 35.4972 605.538 33.632C607.857 31.7669 610.593 30.8343 613.747 30.8343C616.053 30.8343 618.14 31.343 620.008 32.3603C621.877 33.3777 623.473 34.8566 624.798 36.7971C626.123 38.7188 627.144 41.0549 627.859 43.8055C628.575 46.5561 628.933 49.6552 628.933 53.1029V56.7201H601.662V48.1292H618.835C618.822 46.8858 618.597 45.7931 618.16 44.8511C617.736 43.8903 617.159 43.1461 616.43 42.6186C615.715 42.0722 614.9 41.799 613.986 41.799C613.098 41.799 612.283 42.0722 611.541 42.6186C610.799 43.1461 610.203 43.8808 609.752 44.8228C609.315 45.7648 609.083 46.8669 609.056 48.1292V57.3983C609.056 58.7925 609.262 60.0359 609.673 61.1286C610.083 62.2213 610.673 63.0785 611.441 63.7002C612.21 64.3219 613.138 64.6328 614.224 64.6328C614.979 64.6328 615.669 64.4821 616.291 64.1806C616.927 63.8792 617.471 63.4459 617.921 62.8807C618.372 62.2967 618.703 61.5996 618.915 60.7895H628.933C628.588 63.8038 627.773 66.4225 626.488 68.6456C625.203 70.8499 623.5 72.5643 621.38 73.7889C619.273 74.9946 616.808 75.5975 613.986 75.5975Z" fill="white"/>
<path d="M639.007 74.8062V31.3995H649.661V39.6513H649.979C650.535 36.5993 651.416 34.3668 652.622 32.9538C653.841 31.5408 655.266 30.8343 656.896 30.8343C657.373 30.8343 657.843 30.8908 658.307 31.0039C658.784 31.0981 659.241 31.2394 659.678 31.4278V44.738C659.135 44.4743 658.466 44.2765 657.671 44.1446C656.876 44.0127 656.193 43.9468 655.624 43.9468C654.55 43.9468 653.583 44.2953 652.722 44.9924C651.874 45.6706 651.204 46.6314 650.714 47.8748C650.224 49.0994 649.979 50.5407 649.979 52.1986V74.8062H639.007Z" fill="white"/>
</g>
<g filter="url(#filter1_dd_108_2)">
<path d="M415.081 42V53.756H396V42H415.081Z" fill="white"/>
</g>
<g filter="url(#filter2_d_108_2)">
<path d="M117 76H130.464V59.4541H138.282C143.624 59.4541 147.626 57.7084 150.286 54.217C152.946 50.7257 154.276 46.0326 154.276 40.1378C154.276 34.243 152.914 29.5373 150.189 26.0206C147.464 22.504 143.57 20.7457 138.509 20.7457H117V76ZM130.464 48.8662V32.0166H135.298C137.352 32.0166 138.78 32.8009 139.58 34.3695C140.402 35.9381 140.813 37.9494 140.813 40.4035C140.813 42.8828 140.402 44.9194 139.58 46.5133C138.78 48.0819 137.352 48.8662 135.298 48.8662H130.464Z" fill="white"/>
<path d="M175.007 76H208.099V64.1218H187.952V53.496H204.822V42.6045H187.952V33.0413H207.612V20.7457H175.007V76Z" fill="white"/>
<path d="M228.602 76H242.066V57.4048H249.236C253.821 57.4048 257.638 55.6844 260.688 52.2437C263.759 48.8029 265.295 44.287 265.295 38.6957C265.295 33.2563 263.846 28.9048 260.947 25.6411C258.071 22.3775 254.21 20.7457 249.365 20.7457H228.602V76ZM242.066 47.2344V31.7889H246.446C248.371 31.7889 249.722 32.51 250.501 33.9521C251.301 35.3688 251.701 37.2284 251.701 39.5306C251.701 41.8329 251.301 43.6924 250.501 45.1092C249.722 46.526 248.371 47.2344 246.446 47.2344H242.066ZM252.61 76H267.306L256.341 48.4867L244.24 52.0919L252.61 76Z" fill="white"/>
<path d="M286.48 76H298.938V46.3236C298.938 45.4634 298.916 44.464 298.873 43.3256C298.851 42.1871 298.819 41.2636 298.775 40.5553H298.97C299.057 41.2636 299.208 42.1871 299.424 43.3256C299.641 44.4387 299.846 45.4381 300.041 46.3236L307.794 76H319.733L327.455 46.3236C327.671 45.4381 327.876 44.4893 328.071 43.4774C328.266 42.4401 328.428 41.466 328.558 40.5553H328.752C328.687 41.4154 328.644 42.3768 328.623 43.4394C328.623 44.502 328.623 45.4634 328.623 46.3236V76H341.891V20.7457H323.172L315.321 49.3595C315.105 50.245 314.899 51.0925 314.705 51.9021C314.532 52.7117 314.369 53.5972 314.218 54.5586H314.088C313.937 53.5972 313.764 52.7117 313.569 51.9021C313.396 51.0925 313.201 50.245 312.985 49.3595L305.134 20.7457H286.48V76Z" fill="white"/>
<path d="M366.288 19L364.504 39.4547L374.01 39.6445L378 19H366.288Z" fill="white"/>
</g>
<defs>
<filter id="filter0_dd_108_2" x="432" y="21" width="231.678" height="62.5975" filterUnits="userSpaceOnUse" color-interpolation-filters="sRGB">
<feFlood flood-opacity="0" result="BackgroundImageFix"/>
<feColorMatrix in="SourceAlpha" type="matrix" values="0 0 0 0 0 0 0 0 0 0 0 0 0 0 0 0 0 0 127 0" result="hardAlpha"/>
<feOffset dy="4"/>
<feGaussianBlur stdDeviation="2"/>
<feComposite in2="hardAlpha" operator="out"/>
<feColorMatrix type="matrix" values="0 0 0 0 0 0 0 0 0 0 0 0 0 0 0 0 0 0 0.25 0"/>
<feBlend mode="normal" in2="BackgroundImageFix" result="effect1_dropShadow_108_2"/>
<feColorMatrix in="SourceAlpha" type="matrix" values="0 0 0 0 0 0 0 0 0 0 0 0 0 0 0 0 0 0 127 0" result="hardAlpha"/>
<feOffset dy="4"/>
<feGaussianBlur stdDeviation="2"/>
<feComposite in2="hardAlpha" operator="out"/>
<feColorMatrix type="matrix" values="0 0 0 0 0 0 0 0 0 0 0 0 0 0 0 0 0 0 0.25 0"/>
<feBlend mode="normal" in2="effect1_dropShadow_108_2" result="effect2_dropShadow_108_2"/>
<feBlend mode="normal" in="SourceGraphic" in2="effect2_dropShadow_108_2" result="shape"/>
</filter>
<filter id="filter1_dd_108_2" x="392" y="42" width="27.0813" height="19.756" filterUnits="userSpaceOnUse" color-interpolation-filters="sRGB">
<feFlood flood-opacity="0" result="BackgroundImageFix"/>
<feColorMatrix in="SourceAlpha" type="matrix" values="0 0 0 0 0 0 0 0 0 0 0 0 0 0 0 0 0 0 127 0" result="hardAlpha"/>
<feOffset dy="4"/>
<feGaussianBlur stdDeviation="2"/>
<feComposite in2="hardAlpha" operator="out"/>
<feColorMatrix type="matrix" values="0 0 0 0 0 0 0 0 0 0 0 0 0 0 0 0 0 0 0.25 0"/>
<feBlend mode="normal" in2="BackgroundImageFix" result="effect1_dropShadow_108_2"/>
<feColorMatrix in="SourceAlpha" type="matrix" values="0 0 0 0 0 0 0 0 0 0 0 0 0 0 0 0 0 0 127 0" result="hardAlpha"/>
<feOffset dy="4"/>
<feGaussianBlur stdDeviation="2"/>
<feComposite in2="hardAlpha" operator="out"/>
<feColorMatrix type="matrix" values="0 0 0 0 0 0 0 0 0 0 0 0 0 0 0 0 0 0 0.25 0"/>
<feBlend mode="normal" in2="effect1_dropShadow_108_2" result="effect2_dropShadow_108_2"/>
<feBlend mode="normal" in="SourceGraphic" in2="effect2_dropShadow_108_2" result="shape"/>
</filter>
<filter id="filter2_d_108_2" x="113" y="19" width="269" height="65" filterUnits="userSpaceOnUse" color-interpolation-filters="sRGB">
<feFlood flood-opacity="0" result="BackgroundImageFix"/>
<feColorMatrix in="SourceAlpha" type="matrix" values="0 0 0 0 0 0 0 0 0 0 0 0 0 0 0 0 0 0 127 0" result="hardAlpha"/>
<feOffset dy="4"/>
<feGaussianBlur stdDeviation="2"/>
<feComposite in2="hardAlpha" operator="out"/>
<feColorMatrix type="matrix" values="0 0 0 0 0 0 0 0 0 0 0 0 0 0 0 0 0 0 0.36 0"/>
<feBlend mode="normal" in2="BackgroundImageFix" result="effect1_dropShadow_108_2"/>
<feBlend mode="normal" in="SourceGraphic" in2="effect1_dropShadow_108_2" result="shape"/>
</filter>
</defs>
</svg>
