<svg width="513" height="96" viewBox="0 0 513 96" fill="none" xmlns="http://www.w3.org/2000/svg">
<path d="M43.2706 62.1553C39.6598 68.1442 32.5386 67.0922 30.2694 62.3646C24.2821 68.9863 19.3992 62.1465 19.3992 62.1465C20.4949 70.981 27.8981 77.8077 36.874 77.8077C45.993 77.8077 53.4925 70.7552 54.3934 61.7098C54.3934 61.7098 46.3671 66.4623 43.2706 62.1553Z" fill="#A8AAD7"/>
<path d="M36.8986 82.191C25.3744 82.191 16.0332 72.6834 16.0332 60.9496C16.0332 49.2202 25.3731 39.7089 36.8986 39.7089C48.4192 39.7089 57.7606 49.2204 57.7606 60.9496C57.7604 72.6834 48.4192 82.191 36.8986 82.191ZM0.000212157 27.4273V93.4862C0.000212157 94.8748 1.15212 96 2.58024 96H71.4215C72.846 96 74 94.875 74 93.4862V27.4273H0.000212157Z" fill="#6120FF"/>
<path d="M25.8348 15.0688C23.793 15.0688 22.1355 13.3811 22.1355 11.3023C22.1355 9.21986 23.7931 7.53516 25.8348 7.53516C27.8781 7.53516 29.5357 9.21986 29.5357 11.3023C29.5372 13.3811 27.8794 15.0688 25.8348 15.0688ZM13.6171 15.0688C11.5738 15.0688 9.91776 13.3811 9.91776 11.3023C9.91776 9.21986 11.574 7.53516 13.6171 7.53516C15.661 7.53516 17.3173 9.21986 17.3173 11.3023C17.3186 13.3811 15.6626 15.0688 13.6171 15.0688ZM71.4213 0H2.58002C1.1519 0 0 1.21373 0 2.71239V22.6024H73.9998V2.71239C73.9998 1.21373 72.8458 0 71.4213 0Z" fill="#6120FF"/>
<g filter="url(#filter0_dd_13_128)">
<path d="M109.344 80.0842V22.2086H120.395V45.6075H120.952L133.196 22.2086H146.076L132.321 47.9813L146.394 80.0842H133.196L124.053 58.3809L120.395 65.1632V80.0842H109.344Z" fill="white"/>
<path d="M157.91 80.0842V71.3803L177.15 34.8689H157.989V22.2086H191.223V30.9126L171.982 67.4239H191.143V80.0842H157.91Z" fill="white"/>
<path d="M240.231 22.2086V80.0842H231.008L216.3 49.6769H216.061V80.0842H205.01V22.2086H214.391L228.861 52.5029H229.179V22.2086H240.231Z" fill="white"/>
</g>
<g filter="url(#filter1_dd_13_128)">
<path d="M285.322 80.0842V36.6775H295.737V44.9293H296.055C296.691 42.2164 297.777 40.0687 299.315 38.4861C300.852 36.9036 302.68 36.1123 304.8 36.1123C306.947 36.1123 308.796 36.9224 310.346 38.5426C311.896 40.144 312.83 42.2729 313.148 44.9293H313.466C313.983 42.2729 315.083 40.144 316.766 38.5426C318.449 36.9224 320.423 36.1123 322.689 36.1123C325.618 36.1123 327.989 37.4499 329.805 40.1252C331.633 42.8004 332.548 46.3611 332.548 50.8073V80.0842H321.576V54.7636C321.576 52.8608 321.238 51.3725 320.562 50.2986C319.887 49.2059 318.979 48.6596 317.839 48.6596C316.713 48.6596 315.819 49.2059 315.156 50.2986C314.507 51.3725 314.182 52.8608 314.182 54.7636V80.0842H303.687V54.7636C303.687 52.8608 303.349 51.3725 302.674 50.2986C301.998 49.2059 301.09 48.6596 299.951 48.6596C299.195 48.6596 298.546 48.9045 298.003 49.3943C297.459 49.8842 297.035 50.5906 296.731 51.5138C296.439 52.4181 296.293 53.5014 296.293 54.7636V80.0842H285.322Z" fill="white"/>
<path d="M352.063 80.7624C350.115 80.7624 348.393 80.3103 346.896 79.406C345.411 78.4828 344.245 77.0887 343.397 75.2236C342.549 73.3584 342.125 70.9846 342.125 68.1022C342.125 65.7283 342.41 63.7031 342.98 62.0263C343.55 60.3308 344.345 58.9461 345.365 57.8722C346.385 56.7983 347.571 55.9788 348.923 55.4136C350.288 54.8484 351.759 54.481 353.335 54.3115C355.045 54.1231 356.416 53.897 357.45 53.6333C358.497 53.3507 359.252 52.9644 359.716 52.4746C360.18 51.9659 360.411 51.2971 360.411 50.4682V50.3551C360.411 49.2248 360.107 48.3581 359.497 47.7553C358.888 47.1524 358.106 46.851 357.152 46.851C356.105 46.851 355.25 47.1807 354.588 47.84C353.938 48.4806 353.547 49.4697 353.415 50.8073H343.318C343.45 48.1697 344.04 45.7394 345.087 43.5163C346.147 41.2744 347.691 39.4846 349.718 38.147C351.745 36.7906 354.276 36.1123 357.311 36.1123C359.497 36.1123 361.458 36.4797 363.194 37.2144C364.93 37.9304 366.407 38.9383 367.627 40.2382C368.846 41.5193 369.773 43.0265 370.409 44.7597C371.059 46.4742 371.383 48.3393 371.383 50.3551V80.0842H361.127V73.9801H360.888C360.279 75.6004 359.537 76.9097 358.662 77.9082C357.801 78.9067 356.814 79.6321 355.701 80.0842C354.601 80.5364 353.388 80.7624 352.063 80.7624ZM355.641 70.9281C356.476 70.9281 357.258 70.6832 357.987 70.1934C358.729 69.7035 359.331 68.997 359.795 68.0739C360.259 67.1507 360.491 66.0298 360.491 64.711V61.0938C360.199 61.2633 359.888 61.4235 359.557 61.5742C359.239 61.7249 358.894 61.8662 358.523 61.9981C358.165 62.13 357.781 62.2524 357.37 62.3655C356.973 62.4785 356.555 62.5821 356.118 62.6763C355.27 62.8647 354.574 63.1756 354.031 63.6089C353.501 64.0234 353.104 64.5414 352.839 65.1632C352.587 65.766 352.461 66.4443 352.461 67.1978C352.461 68.4036 352.759 69.3267 353.355 69.9673C353.952 70.6078 354.714 70.9281 355.641 70.9281Z" fill="white"/>
<path d="M410.129 50.8073H400.032C399.979 49.9218 399.76 49.1588 399.376 48.5183C398.992 47.8777 398.495 47.3879 397.885 47.0488C397.289 46.6908 396.626 46.5118 395.898 46.5118C394.957 46.5118 394.149 46.7568 393.473 47.2466C392.797 47.7364 392.466 48.4335 392.479 49.3378C392.466 49.9784 392.658 50.5718 393.055 51.1182C393.466 51.6645 394.255 52.0884 395.421 52.3898L401.622 53.9724C404.749 54.7825 407.075 56.1484 408.599 58.07C410.136 59.9728 410.911 62.5256 410.924 65.7284C410.911 68.8181 410.262 71.5027 408.976 73.7823C407.704 76.0431 405.962 77.7952 403.749 79.0386C401.549 80.2632 399.038 80.8755 396.216 80.8755C391.551 80.8755 387.901 79.519 385.264 76.8061C382.64 74.0932 381.176 70.5136 380.871 66.0675H391.763C391.909 67.4428 392.386 68.5072 393.194 69.2608C394.016 69.9955 395.05 70.3629 396.295 70.3629C397.302 70.3629 398.13 70.118 398.78 69.6282C399.442 69.1383 399.78 68.4413 399.793 67.537C399.78 66.708 399.489 66.0486 398.919 65.5588C398.362 65.069 397.488 64.6733 396.295 64.3719L390.889 63.0154C387.775 62.243 385.443 60.7735 383.892 58.6069C382.342 56.4404 381.573 53.6521 381.587 50.2421C381.573 47.2278 382.13 44.675 383.256 42.5838C384.396 40.4737 386.019 38.8723 388.126 37.7796C390.246 36.6681 392.757 36.1123 395.659 36.1123C400.072 36.1123 403.55 37.4123 406.094 40.0121C408.652 42.612 409.997 46.2104 410.129 50.8073Z" fill="white"/>
<path d="M438.932 36.6775V47.9813H418.817V36.6775H438.932ZM422.713 26.278H433.685V66.124C433.685 66.7269 433.757 67.2355 433.903 67.65C434.049 68.0456 434.274 68.3471 434.579 68.5543C434.884 68.7427 435.275 68.8369 435.752 68.8369C436.083 68.8369 436.467 68.7804 436.905 68.6673C437.355 68.5543 437.686 68.4601 437.898 68.3847L439.488 79.3495C438.998 79.5567 438.296 79.811 437.382 80.1125C436.48 80.4139 435.407 80.6117 434.162 80.7059C431.644 80.8943 429.53 80.5269 427.821 79.6038C426.112 78.6618 424.826 77.1829 423.965 75.167C423.104 73.1512 422.686 70.6267 422.713 67.5935V26.278Z" fill="white"/>
<path d="M463.307 80.8755C460.048 80.8755 457.238 79.99 454.88 78.2191C452.534 76.4293 450.726 73.8671 449.453 70.5325C448.195 67.179 447.565 63.1662 447.565 58.4939C447.565 54.0101 448.201 50.0914 449.473 46.7379C450.745 43.3844 452.541 40.7752 454.86 38.91C457.179 37.0449 459.915 36.1123 463.069 36.1123C465.374 36.1123 467.461 36.621 469.33 37.6383C471.198 38.6557 472.795 40.1346 474.12 42.0751C475.445 43.9967 476.465 46.3329 477.181 49.0835C477.896 51.8341 478.254 54.9332 478.254 58.3809V61.9981H450.984V53.4072H468.157C468.144 52.1638 467.919 51.0711 467.481 50.1291C467.057 49.1682 466.481 48.4241 465.752 47.8966C465.036 47.3502 464.222 47.077 463.307 47.077C462.419 47.077 461.605 47.3502 460.862 47.8966C460.12 48.4241 459.524 49.1588 459.074 50.1008C458.636 51.0428 458.404 52.1449 458.378 53.4072V62.6763C458.378 64.0705 458.583 65.3139 458.994 66.4066C459.405 67.4993 459.995 68.3565 460.763 68.9782C461.532 69.5999 462.459 69.9108 463.546 69.9108C464.301 69.9108 464.99 69.7601 465.613 69.4586C466.249 69.1572 466.792 68.7239 467.243 68.1587C467.693 67.5746 468.025 66.8776 468.237 66.0675H478.254C477.91 69.0818 477.095 71.7005 475.809 73.9236C474.524 76.1279 472.821 77.8423 470.701 79.0669C468.594 80.2726 466.13 80.8755 463.307 80.8755Z" fill="white"/>
<path d="M488.329 80.0842V36.6775H498.982V44.9293H499.3C499.857 41.8773 500.738 39.6448 501.944 38.2318C503.163 36.8188 504.587 36.1123 506.217 36.1123C506.694 36.1123 507.165 36.1688 507.629 36.2819C508.106 36.3761 508.563 36.5174 509 36.7058V50.016C508.457 49.7523 507.788 49.5545 506.992 49.4226C506.197 49.2907 505.515 49.2248 504.945 49.2248C503.872 49.2248 502.905 49.5733 502.043 50.2704C501.195 50.9486 500.526 51.9094 500.036 53.1528C499.545 54.3774 499.3 55.8187 499.3 57.4766V80.0842H488.329Z" fill="white"/>
</g>
<g filter="url(#filter2_dd_13_128)">
<path d="M271.38 51.1464V62.9024H252.299V51.1464H271.38Z" fill="white"/>
</g>
<defs>
<filter id="filter0_dd_13_128" x="105.344" y="22.2086" width="138.887" height="65.8756" filterUnits="userSpaceOnUse" color-interpolation-filters="sRGB">
<feFlood flood-opacity="0" result="BackgroundImageFix"/>
<feColorMatrix in="SourceAlpha" type="matrix" values="0 0 0 0 0 0 0 0 0 0 0 0 0 0 0 0 0 0 127 0" result="hardAlpha"/>
<feOffset dy="4"/>
<feGaussianBlur stdDeviation="2"/>
<feComposite in2="hardAlpha" operator="out"/>
<feColorMatrix type="matrix" values="0 0 0 0 0 0 0 0 0 0 0 0 0 0 0 0 0 0 0.25 0"/>
<feBlend mode="normal" in2="BackgroundImageFix" result="effect1_dropShadow_13_128"/>
<feColorMatrix in="SourceAlpha" type="matrix" values="0 0 0 0 0 0 0 0 0 0 0 0 0 0 0 0 0 0 127 0" result="hardAlpha"/>
<feOffset dy="4"/>
<feGaussianBlur stdDeviation="2"/>
<feComposite in2="hardAlpha" operator="out"/>
<feColorMatrix type="matrix" values="0 0 0 0 0 0 0 0 0 0 0 0 0 0 0 0 0 0 0.25 0"/>
<feBlend mode="normal" in2="effect1_dropShadow_13_128" result="effect2_dropShadow_13_128"/>
<feBlend mode="normal" in="SourceGraphic" in2="effect2_dropShadow_13_128" result="shape"/>
</filter>
<filter id="filter1_dd_13_128" x="281.322" y="26.278" width="231.678" height="62.5975" filterUnits="userSpaceOnUse" color-interpolation-filters="sRGB">
<feFlood flood-opacity="0" result="BackgroundImageFix"/>
<feColorMatrix in="SourceAlpha" type="matrix" values="0 0 0 0 0 0 0 0 0 0 0 0 0 0 0 0 0 0 127 0" result="hardAlpha"/>
<feOffset dy="4"/>
<feGaussianBlur stdDeviation="2"/>
<feComposite in2="hardAlpha" operator="out"/>
<feColorMatrix type="matrix" values="0 0 0 0 0 0 0 0 0 0 0 0 0 0 0 0 0 0 0.25 0"/>
<feBlend mode="normal" in2="BackgroundImageFix" result="effect1_dropShadow_13_128"/>
<feColorMatrix in="SourceAlpha" type="matrix" values="0 0 0 0 0 0 0 0 0 0 0 0 0 0 0 0 0 0 127 0" result="hardAlpha"/>
<feOffset dy="4"/>
<feGaussianBlur stdDeviation="2"/>
<feComposite in2="hardAlpha" operator="out"/>
<feColorMatrix type="matrix" values="0 0 0 0 0 0 0 0 0 0 0 0 0 0 0 0 0 0 0.25 0"/>
<feBlend mode="normal" in2="effect1_dropShadow_13_128" result="effect2_dropShadow_13_128"/>
<feBlend mode="normal" in="SourceGraphic" in2="effect2_dropShadow_13_128" result="shape"/>
</filter>
<filter id="filter2_dd_13_128" x="248.299" y="51.1464" width="27.0813" height="19.756" filterUnits="userSpaceOnUse" color-interpolation-filters="sRGB">
<feFlood flood-opacity="0" result="BackgroundImageFix"/>
<feColorMatrix in="SourceAlpha" type="matrix" values="0 0 0 0 0 0 0 0 0 0 0 0 0 0 0 0 0 0 127 0" result="hardAlpha"/>
<feOffset dy="4"/>
<feGaussianBlur stdDeviation="2"/>
<feComposite in2="hardAlpha" operator="out"/>
<feColorMatrix type="matrix" values="0 0 0 0 0 0 0 0 0 0 0 0 0 0 0 0 0 0 0.25 0"/>
<feBlend mode="normal" in2="BackgroundImageFix" result="effect1_dropShadow_13_128"/>
<feColorMatrix in="SourceAlpha" type="matrix" values="0 0 0 0 0 0 0 0 0 0 0 0 0 0 0 0 0 0 127 0" result="hardAlpha"/>
<feOffset dy="4"/>
<feGaussianBlur stdDeviation="2"/>
<feComposite in2="hardAlpha" operator="out"/>
<feColorMatrix type="matrix" values="0 0 0 0 0 0 0 0 0 0 0 0 0 0 0 0 0 0 0.25 0"/>
<feBlend mode="normal" in2="effect1_dropShadow_13_128" result="effect2_dropShadow_13_128"/>
<feBlend mode="normal" in="SourceGraphic" in2="effect2_dropShadow_13_128" result="shape"/>
</filter>
</defs>
</svg>
