<svg width="51" height="42" viewBox="0 0 51 42" fill="none" xmlns="http://www.w3.org/2000/svg">
<path d="M8.03778 19.0341C9.2031 18.6775 10.3684 18.4966 11.502 18.4966C13.2524 18.4966 14.7131 18.9218 15.8456 19.4424C14.7538 15.1936 12.1308 7.86244 6.90571 7.03684C6.42181 6.96035 6.02527 6.58843 5.89325 6.0878L4.75126 1.74615C4.65497 1.37899 4.71205 0.98597 4.90908 0.667337C5.10611 0.348703 5.42275 0.136105 5.77761 0.0844061C6.16324 0.028487 6.55631 0 6.94591 0C13.2177 0 19.4289 6.95823 22.0499 16.9213C23.5885 22.7665 24.0396 31.5542 20.2498 37.0854C18.1291 40.1805 15.0352 41.8333 11.0538 41.9984C11.0374 41.9989 11.0216 41.9995 11.0052 41.9995C6.09276 41.9995 1.73671 38.4829 0.411579 33.4486C-0.380025 30.439 -0.0221914 27.2827 1.42007 24.559C2.84694 21.866 5.19694 19.903 8.03778 19.0341Z" fill="#6120FF"/>
<path d="M29.2397 24.5596C30.6665 21.866 33.0165 19.903 35.8574 19.0341C37.0227 18.6775 38.188 18.4966 39.3211 18.4966C41.0715 18.4966 42.5327 18.9218 43.6652 19.4424C42.5734 15.1936 39.9504 7.86244 34.7248 7.03684C34.2409 6.96035 33.8449 6.58843 33.7124 6.0878L32.5704 1.74615C32.4741 1.37899 32.5311 0.98597 32.7282 0.667337C32.9247 0.348703 33.2414 0.136105 33.5967 0.0844061C33.9818 0.028487 34.3749 0 34.765 0C41.0368 0 47.248 6.95823 49.8695 16.9213C51.4076 22.7665 51.8587 31.5542 48.0684 37.0865C45.9482 40.181 42.8538 41.8344 38.8729 41.9989C38.8565 41.9995 38.8407 42 38.8238 42C33.9119 42 29.5553 38.4834 28.2302 33.4491C27.4396 30.4395 27.7979 27.2827 29.2397 24.5596Z" fill="#6120FF"/>
</svg>
