<svg width="51" height="42" viewBox="0 0 51 42" fill="none" xmlns="http://www.w3.org/2000/svg">
<path d="M15.1431 19.0341C13.9778 18.6775 12.8124 18.4966 11.6789 18.4966C9.92841 18.4966 8.46779 18.9218 7.33523 19.4424C8.42709 15.1936 11.0501 7.86244 16.2751 7.03684C16.759 6.96035 17.1556 6.58843 17.2876 6.0878L18.4296 1.74615C18.5259 1.37899 18.4688 0.98597 18.2718 0.667337C18.0747 0.348703 17.7581 0.136105 17.4032 0.0844061C17.0176 0.028487 16.6245 0 16.2349 0C9.96315 0 3.75191 6.95823 1.13094 16.9213C-0.407605 22.7665 -0.858744 31.5542 2.93103 37.0854C5.05173 40.1805 8.14569 41.8333 12.127 41.9984C12.1434 41.9989 12.1593 41.9995 12.1757 41.9995C17.0881 41.9995 21.4441 38.4829 22.7693 33.4486C23.5609 30.439 23.203 27.2827 21.7608 24.559C20.3339 21.866 17.9839 19.903 15.1431 19.0341Z" fill="#6120FF"/>
<path d="M49.5798 24.5596C48.1529 21.866 45.8029 19.903 42.9621 19.0341C41.7968 18.6775 40.6314 18.4966 39.4984 18.4966C37.7479 18.4966 36.2868 18.9218 35.1542 19.4424C36.2461 15.1936 38.8691 7.86244 44.0946 7.03684C44.5785 6.96035 44.9746 6.58843 45.1071 6.0878L46.2491 1.74615C46.3454 1.37899 46.2883 0.98597 46.0913 0.667337C45.8947 0.348703 45.5781 0.136105 45.2227 0.0844061C44.8376 0.028487 44.4445 0 44.0544 0C37.7827 0 31.5714 6.95823 28.9499 16.9213C27.4119 22.7665 26.9608 31.5542 30.751 37.0865C32.8712 40.181 35.9657 41.8344 39.9465 41.9989C39.9629 41.9995 39.9788 42 39.9957 42C44.9076 42 49.2641 38.4834 50.5893 33.4491C51.3799 30.4395 51.0216 27.2827 49.5798 24.5596Z" fill="#6120FF"/>
</svg>
